{
    "asset" : {
        "generator" : "Khronos glTF Blender I/O v1.8.19",
        "version" : "2.0"
    },
    "scene" : 0,
    "scenes" : [
        {
            "name" : "Scene",
            "nodes" : [
                0
            ]
        }
    ],
    "nodes" : [
        {
            "extras" : {
                "sparkar_optimization" : {
                    "InvertedReducePercentage" : 0.0
                },
                "spark_blender_addon" : 1
            },
            "mesh" : 0,
            "name" : "Mesh_0.001"
        }
    ],
    "materials" : [
        {
            "doubleSided" : true,
            "name" : "defaultMat.001",
            "pbrMetallicRoughness" : {
                "baseColorTexture" : {
                    "index" : 0
                },
                "metallicFactor" : 0
            }
        }
    ],
    "meshes" : [
        {
            "name" : "Mesh_0.001",
            "primitives" : [
                {
                    "attributes" : {
                        "POSITION" : 0,
                        "NORMAL" : 1,
                        "TEXCOORD_0" : 2
                    },
                    "indices" : 3,
                    "material" : 0
                }
            ]
        }
    ],
    "textures" : [
        {
            "sampler" : 0,
            "source" : 0
        }
    ],
    "images" : [
        {
            "bufferView" : 4,
            "mimeType" : "image/jpeg",
            "name" : "defaultMat_baseColor"
        }
    ],
    "accessors" : [
        {
            "bufferView" : 0,
            "componentType" : 5126,
            "count" : 1401,
            "max" : [
                0.2475694715976715,
                0.6072887778282166,
                0.2000190019607544
            ],
            "min" : [
                -0.24752527475357056,
                8.112701470963657e-05,
                -0.19974802434444427
            ],
            "type" : "VEC3"
        },
        {
            "bufferView" : 1,
            "componentType" : 5126,
            "count" : 1401,
            "type" : "VEC3"
        },
        {
            "bufferView" : 2,
            "componentType" : 5126,
            "count" : 1401,
            "type" : "VEC2"
        },
        {
            "bufferView" : 3,
            "componentType" : 5123,
            "count" : 7497,
            "type" : "SCALAR"
        }
    ],
    "bufferViews" : [
        {
            "buffer" : 0,
            "byteLength" : 16812,
            "byteOffset" : 0
        },
        {
            "buffer" : 0,
            "byteLength" : 16812,
            "byteOffset" : 16812
        },
        {
            "buffer" : 0,
            "byteLength" : 11208,
            "byteOffset" : 33624
        },
        {
            "buffer" : 0,
            "byteLength" : 14994,
            "byteOffset" : 44832
        },
        {
            "buffer" : 0,
            "byteLength" : 129838,
            "byteOffset" : 59828
        }
    ],
    "samplers" : [
        {
            "magFilter" : 9729,
            "minFilter" : 9987
        }
    ],
    "buffers" : [
        {
            "byteLength" : 189668,
            "uri" : "data:application/octet-stream;base64,"
        }
    ]
}
